<svg xmlns="http://www.w3.org/2000/svg" width="32" height="32" viewBox="0 0 32 32">
  <!-- Ocean waves favicon with background -->
  <defs>
    <linearGradient id="oceanGradient" x1="0%" y1="0%" x2="100%" y2="100%">
      <stop offset="0%" style="stop-color:#0ea5e9;stop-opacity:1" />
      <stop offset="50%" style="stop-color:#0284c7;stop-opacity:1" />
      <stop offset="100%" style="stop-color:#0369a1;stop-opacity:1" />
    </linearGradient>
  </defs>
  
  <!-- Background circle -->
  <circle cx="16" cy="16" r="15" fill="url(#oceanGradient)"/>
  
  <!-- Wave lines matching navbar icon -->
  <g stroke="white" stroke-width="1.5" fill="none" stroke-linecap="round">
    <path d="M6 10c1.5.5 2 1.5 4 1.5s2.5-1.5 4-1.5 2.5 1.5 4 1.5 2.5-1.5 4-1.5c1.5 0 2 1 2.5 1.5"/>
    <path d="M6 16c1.5.5 2 1.5 4 1.5s2.5-1.5 4-1.5 2.5 1.5 4 1.5 2.5-1.5 4-1.5c1.5 0 2 1 2.5 1.5"/>
    <path d="M6 22c1.5.5 2 1.5 4 1.5s2.5-1.5 4-1.5 2.5 1.5 4 1.5 2.5-1.5 4-1.5c1.5 0 2 1 2.5 1.5"/>
  </g>
  
  <!-- Small accent dot -->
  <circle cx="24" cy="8" r="2" fill="white" opacity="0.8"/>
  <circle cx="24" cy="8" r="2" fill="#22d3ee" opacity="0.5"/>
</svg>


