<svg xmlns="http://www.w3.org/2000/svg" width="64" height="64" viewBox="0 0 64 64">
  <!-- Background circle with gradient -->
  <defs>
    <linearGradient id="oceanGradient" x1="0%" y1="0%" x2="100%" y2="100%">
      <stop offset="0%" style="stop-color:#0ea5e9;stop-opacity:1" />
      <stop offset="50%" style="stop-color:#0284c7;stop-opacity:1" />
      <stop offset="100%" style="stop-color:#0369a1;stop-opacity:1" />
    </linearGradient>
  </defs>
  
  <!-- Background circle -->
  <circle cx="32" cy="32" r="30" fill="url(#oceanGradient)"/>
  
  <!-- Wave lines -->
  <g stroke="white" stroke-width="2.5" fill="none" stroke-linecap="round">
    <path d="M12 20c2.5.5 3 2 6 2s3.5-2 6-2 3.5 2 6 2 3.5-2 6-2c2 0 2.5 1 3 1.5"/>
    <path d="M12 28c2.5.5 3 2 6 2s3.5-2 6-2 3.5 2 6 2 3.5-2 6-2c2 0 2.5 1 3 1.5"/>
    <path d="M12 36c2.5.5 3 2 6 2s3.5-2 6-2 3.5 2 6 2 3.5-2 6-2c2 0 2.5 1 3 1.5"/>
    <path d="M12 44c2.5.5 3 2 6 2s3.5-2 6-2 3.5 2 6 2 3.5-2 6-2c2 0 2.5 1 3 1.5"/>
  </g>
  
  <!-- Accent dot -->
  <circle cx="46" cy="18" r="3" fill="white" opacity="0.8"/>
  <circle cx="46" cy="18" r="3" fill="#22d3ee" opacity="0.6"/>
</svg>
